<?xml version="1.0" encoding="UTF-8"?>
<svg width="42px" height="42px" viewBox="0 0 42 42" version="1.1" xmlns="http://www.w3.org/2000/svg" xmlns:xlink="http://www.w3.org/1999/xlink">
    <!-- Generator: Sketch 44.1 (41455) - http://www.bohemiancoding.com/sketch -->
    <title>Shape</title>
    <desc>Created with Sketch.</desc>
    <defs></defs>
    <g id="Page-1" stroke="none" stroke-width="1" fill="none" fill-rule="evenodd">
        <g id="业务查询" transform="translate(-54.000000, -1254.000000)" fill="#30B2F2">
            <g id="Group-2" transform="translate(0.000000, 1240.000000)">
                <g id="旺旺">
                    <path d="M75.7513693,35.6782481 C74.5059503,35.6782481 73.49933,34.6747065 73.49933,33.4355894 L73.49933,30.4455542 C73.49933,29.2062447 74.5059503,28.2028474 75.7513693,28.2028474 C76.9940463,28.2028474 78.002639,29.2062447 78.002639,30.4455542 L78.002639,33.4355894 C78.002639,34.6748989 76.9940463,35.6782481 75.7513693,35.6782481 L75.7513693,35.6782481 L75.7513693,35.6782481 Z M84.709737,35.6782481 C83.4659054,35.6782481 82.4584673,34.6747065 82.4584673,33.4355894 L82.4584673,30.4455542 C82.4584673,29.2062447 83.4660979,28.2028474 84.709737,28.2028474 C85.9531837,28.2028474 86.9607661,29.2062447 86.9607661,30.4455542 L86.9607661,33.4355894 C86.9606218,34.6748989 85.9529431,35.6782481 84.709737,35.6782481 L84.709737,35.6782481 L84.709737,35.6782481 Z M75.0000481,14.1640419 C71.1947588,14.1640419 67.5201737,15.17783 64.283739,17.0944255 C62.4752861,15.1199583 59.8529259,14 56.8653441,14 C56.3191955,14 55.8176893,14.2971996 55.5529614,14.7724398 C55.2880892,15.2477281 55.3049263,15.8328909 55.5956315,16.293122 C55.611699,16.3173194 57.1674986,18.8301419 57.5597559,22.6857984 C57.6381207,23.4564102 58.29068,24.0304604 59.0522479,24.0304604 C59.1027112,24.0304604 59.1520199,24.0286323 59.2053215,24.0220418 C60.0294272,23.9391068 60.6307055,23.2066913 60.5467603,22.3839807 C60.3425499,20.3760317 59.8709176,18.6793774 59.3982751,17.3954254 C60.5467603,17.7773398 61.7893892,18.5086969 62.688781,19.8906411 C62.6933992,19.8980013 62.701048,19.9008396 62.7046079,19.9082479 C62.7092261,19.9138764 62.7092261,19.920515 62.7120643,19.9260953 C62.7661356,20.0034018 62.84248,20.0498723 62.9078081,20.1141421 C62.9805445,20.1860126 63.0412544,20.2699578 63.1251996,20.3238366 C63.2099626,20.379736 63.3089168,20.4031636 63.4021465,20.4403497 C63.4868613,20.4738315 63.5652262,20.5214565 63.6537896,20.5391115 C63.7507715,20.5587388 63.8485231,20.5446918 63.9465152,20.5446918 C64.040707,20.5446918 64.1348506,20.5595085 64.2290424,20.5419017 C64.3212137,20.5242468 64.4041486,20.4747937 64.4929044,20.4393395 C64.584306,20.4031155 64.6792674,20.3872405 64.7639823,20.3329768 C64.7706209,20.3284068 64.7734111,20.3209984 64.7808675,20.3163802 C64.7872656,20.3135901 64.7946739,20.3117621 64.8002542,20.3089719 C67.8066936,18.2459414 71.3338335,17.1540771 75.000048,17.1540771 C84.9249155,17.1540771 92.9984193,25.1959752 92.9984193,35.083801 C92.9984193,44.9688365 84.9249155,53.0109271 75.000048,53.0109271 C65.0761428,53.0109271 57.0016768,44.9680187 57.0016768,35.083801 C57.0016768,32.5521689 57.5189618,30.1054441 58.5426116,27.8123222 C58.8790176,27.0593173 58.5380415,26.175127 57.7810919,25.8388653 C57.0241423,25.5034214 56.1367289,25.8434835 55.7991203,26.5983164 C54.6058965,29.2763834 54,32.1302301 54,35.0812993 C54,46.6163744 63.4203787,56.0000962 75,56.0000962 C86.5804391,56.0000962 96,46.6163744 96,35.0811069 C96.0000481,23.5478118 86.5804873,14.1640419 75.0000481,14.1640419 L75.0000481,14.1640419 L75.0000481,14.1640419 Z" id="Shape"></path>
                </g>
            </g>
        </g>
    </g>
</svg>